# xmcd
#
# Track frame offsets:
#	150
#	11486
#	26010
#	37586
#	53798
#	65727
#	79561
#	96785
#	106303
#	123940
#	137253
#	168978
#	183078
#
# Disc length: 2605 seconds
#
# Revision: 1
# Processed by: cddbd v1.5.2PL0 Copyright (c) Steve Scherf et al.
# Submitted via: audiograbber 1.83.01
#
DISCID=930a2b0d
DTITLE=Koerner, Ray, and Glover - Good Old Koerner, Ray, and Glover
DYEAR=1972
DGENRE=Blues
TTITLE0=Black Jack Davy
TTITLE1=Down to Louisiana
TTITLE2=Too Bad
TTITLE3=Dust My Broom
TTITLE4=Black Snake Moan
TTITLE5=Mumblin' Word
TTITLE6=Two Trains
TTITLE7=Drunken Instrumental
TTITLE8=Love to You
TTITLE9=Special Agent
TTITLE10=Mean Ol' Southern
TTITLE11=Love Bug
TTITLE12=Linin' Track
EXTD=
EXTT0=
EXTT1=
EXTT2=
EXTT3=
EXTT4=
EXTT5=
EXTT6=
EXTT7=
EXTT8=
EXTT9=
EXTT10=
EXTT11=
EXTT12=
PLAYORDER=
